<svg id="svg" version="1.1" xmlns="http://www.w3.org/2000/svg" xmlns:xlink="http://www.w3.org/1999/xlink" width="400" height="400" viewBox="0, 0, 400,400"><g id="svgg"><path id="path0" d="M200.800 80.790 C 200.470 80.979,199.525 81.427,198.699 81.786 C 191.234 85.031,178.736 99.513,168.483 116.800 C 167.504 118.450,166.590 119.890,166.452 120.000 C 165.870 120.462,159.472 133.064,157.921 136.800 C 157.693 137.350,157.269 138.250,156.978 138.800 L 156.450 139.800 78.225 139.901 L 0.000 140.002 0.000 200.000 L 0.000 259.998 78.225 260.099 L 156.450 260.200 156.978 261.200 C 157.269 261.750,157.693 262.650,157.921 263.200 C 159.485 266.968,165.875 279.546,166.456 280.000 C 166.597 280.110,167.395 281.370,168.229 282.800 C 177.965 299.490,191.304 314.996,198.690 318.210 C 199.521 318.572,200.513 319.032,200.895 319.234 C 201.795 319.709,206.605 319.709,207.505 319.234 C 207.887 319.032,208.879 318.572,209.710 318.210 C 214.277 316.222,220.454 310.229,229.129 299.364 C 230.852 297.206,239.200 284.518,239.200 284.057 C 239.200 283.806,239.380 283.600,239.600 283.600 C 239.820 283.600,240.000 283.407,240.000 283.172 C 240.000 282.937,240.518 281.991,241.152 281.070 C 243.201 278.091,246.890 271.042,249.561 265.000 C 250.242 263.460,251.031 261.750,251.315 261.200 L 251.831 260.200 325.915 260.099 L 400.000 259.998 400.000 199.999 L 400.000 140.000 325.849 140.000 L 251.697 140.000 251.182 138.700 C 249.957 135.609,244.856 124.855,244.399 124.400 C 244.289 124.290,243.934 123.660,243.610 123.000 C 243.286 122.340,242.342 120.775,241.511 119.522 C 240.680 118.269,240.000 117.128,240.000 116.987 C 240.000 116.656,230.382 102.177,229.139 100.636 C 223.796 94.014,222.217 92.180,219.558 89.514 C 216.037 85.984,211.911 82.747,209.710 81.790 C 208.879 81.428,207.887 80.968,207.505 80.766 C 206.638 80.309,201.610 80.327,200.800 80.790 M201.600 133.089 C 201.600 176.864,201.518 184.460,201.051 183.789 C 199.455 181.497,195.447 167.807,194.028 159.800 C 190.288 138.698,191.089 115.641,196.240 96.119 C 197.985 89.506,200.819 81.600,201.444 81.600 C 201.530 81.600,201.600 104.770,201.600 133.089 M209.547 87.830 C 217.837 112.537,218.946 142.123,212.546 167.800 C 210.617 175.539,207.701 183.882,206.990 183.700 C 206.579 183.595,206.205 83.097,206.611 82.031 C 206.986 81.048,207.834 82.723,209.547 87.830 M157.537 142.100 C 157.926 143.035,158.491 144.610,158.792 145.600 C 159.093 146.590,159.488 147.571,159.670 147.780 C 159.851 147.989,160.000 148.486,160.000 148.885 C 160.000 149.284,160.164 149.923,160.364 150.305 C 160.913 151.351,163.378 159.698,164.439 164.100 C 164.637 164.925,164.990 166.365,165.222 167.300 C 169.511 184.583,170.369 208.781,167.211 223.400 C 167.021 224.280,166.657 226.080,166.403 227.400 C 166.148 228.720,165.774 230.475,165.570 231.300 C 165.367 232.125,165.034 233.475,164.831 234.300 C 163.530 239.579,161.078 248.153,160.397 249.800 C 160.216 250.240,159.979 250.960,159.873 251.400 C 158.773 255.938,156.000 261.375,156.000 258.995 C 156.000 258.662,155.822 258.077,155.604 257.695 C 155.204 256.995,151.403 245.721,150.751 243.300 C 150.558 242.585,150.208 241.325,149.973 240.500 C 149.739 239.675,149.371 238.280,149.155 237.400 C 148.940 236.520,148.604 235.170,148.408 234.400 C 148.213 233.630,147.868 232.271,147.642 231.381 C 142.595 211.455,143.042 186.182,148.840 163.800 C 150.033 159.195,150.822 156.381,151.197 155.400 C 151.364 154.960,152.365 151.900,153.420 148.600 C 154.475 145.300,155.488 142.429,155.669 142.220 C 155.851 142.011,156.000 141.516,156.000 141.120 C 156.000 139.839,156.810 140.355,157.537 142.100 M254.907 148.800 C 256.323 153.090,257.710 157.410,257.987 158.400 C 258.265 159.390,258.640 160.650,258.820 161.200 C 259.195 162.348,260.766 169.022,261.220 171.400 C 261.388 172.280,261.736 174.080,261.992 175.400 C 264.927 190.520,264.955 209.431,262.063 224.200 C 261.847 225.300,261.487 227.190,261.263 228.400 C 260.884 230.446,259.211 237.322,258.368 240.300 C 258.166 241.015,257.842 242.185,257.650 242.900 C 256.913 245.633,252.341 259.015,252.041 259.317 C 251.409 259.953,248.085 251.214,245.608 242.400 C 245.330 241.410,244.872 239.790,244.592 238.800 C 244.312 237.810,243.872 236.100,243.616 235.000 C 243.359 233.900,242.997 232.370,242.811 231.600 C 242.098 228.648,240.969 222.655,240.437 219.000 C 239.402 211.877,239.199 208.766,239.199 200.000 C 239.199 188.783,239.728 183.593,242.075 171.800 C 242.518 169.574,242.766 168.533,244.027 163.600 C 247.209 151.150,251.176 139.791,252.029 140.683 C 252.196 140.857,253.491 144.510,254.907 148.800 M208.265 186.445 C 217.902 193.075,214.779 214.800,204.188 214.800 C 193.438 214.800,190.429 192.693,200.299 186.230 C 202.614 184.714,205.877 184.802,208.265 186.445 M201.503 293.100 L 201.400 319.000 199.948 315.400 C 190.495 291.960,189.074 257.626,196.407 229.800 C 197.653 225.070,199.651 219.066,200.732 216.800 C 201.484 215.224,201.720 238.556,201.503 293.100 M208.716 219.688 C 216.921 241.769,218.888 270.233,213.961 295.600 C 212.012 305.637,207.805 318.821,206.757 318.174 C 206.353 317.923,206.252 216.682,206.656 216.278 C 207.136 215.798,207.485 216.376,208.716 219.688 " stroke="none" fill="#bb0404" fill-rule="evenodd"></path><path id="path1" d="M123.961 61.000 C 123.771 62.429,125.413 69.308,127.349 75.200 C 130.960 86.191,134.709 94.484,141.167 105.770 C 144.774 112.075,148.421 116.110,152.190 117.965 C 153.625 118.672,154.800 119.419,154.800 119.625 C 154.800 119.857,125.284 120.000,77.400 120.000 L 0.000 120.000 -0.000 130.001 L -0.000 140.002 78.225 139.901 L 156.450 139.800 156.978 138.800 C 157.269 138.250,157.693 137.350,157.921 136.800 C 158.935 134.357,163.684 124.692,164.807 122.788 C 166.299 120.257,166.057 119.872,163.088 120.061 C 159.883 120.264,159.102 118.990,159.014 113.412 C 158.930 108.025,157.762 104.818,152.909 96.649 C 151.749 94.696,150.800 93.012,150.800 92.906 C 150.800 92.417,143.466 82.096,140.065 77.800 C 136.231 72.957,124.059 60.259,123.961 61.000 M279.508 65.398 C 262.531 82.098,248.751 104.278,249.255 114.090 C 249.363 116.179,249.211 117.023,248.470 118.463 L 247.553 120.248 245.227 120.079 C 243.895 119.983,242.795 120.085,242.651 120.318 C 242.439 120.661,243.772 123.772,244.400 124.400 C 244.857 124.857,249.959 135.614,251.182 138.700 L 251.697 140.000 325.849 140.000 L 400.000 140.000 400.000 130.000 L 400.000 120.000 326.800 120.000 C 278.979 120.000,253.600 119.863,253.600 119.606 C 253.600 119.389,254.695 118.659,256.034 117.983 C 264.755 113.580,277.204 90.546,283.040 68.010 C 285.127 59.948,285.082 59.915,279.508 65.398 M200.410 83.468 C 192.914 99.415,189.635 132.065,193.227 155.000 C 194.943 165.957,198.981 180.816,201.051 183.789 C 201.518 184.460,201.600 176.864,201.600 133.089 C 201.600 104.770,201.530 81.600,201.444 81.600 C 201.358 81.600,200.893 82.441,200.410 83.468 M206.611 82.031 C 206.205 83.097,206.579 183.595,206.990 183.700 C 207.701 183.882,210.617 175.539,212.546 167.800 C 218.946 142.123,217.837 112.537,209.547 87.830 C 207.834 82.723,206.986 81.048,206.611 82.031 M200.299 186.230 C 190.429 192.693,193.438 214.800,204.188 214.800 C 214.779 214.800,217.902 193.075,208.265 186.445 C 205.877 184.802,202.614 184.714,200.299 186.230 M200.732 216.800 C 198.848 220.747,195.928 230.719,194.465 238.200 C 189.384 264.172,191.543 294.558,199.948 315.400 L 201.400 319.000 201.503 293.100 C 201.720 238.556,201.484 215.224,200.732 216.800 M206.656 216.278 C 206.252 216.682,206.353 317.923,206.757 318.174 C 207.805 318.821,212.012 305.637,213.961 295.600 C 218.888 270.233,216.921 241.769,208.716 219.688 C 207.485 216.376,207.136 215.798,206.656 216.278 M-0.000 269.999 L 0.000 280.000 77.400 280.000 C 119.970 280.000,154.800 280.107,154.800 280.238 C 154.800 280.584,153.552 282.782,142.865 301.253 C 131.585 320.752,132.514 318.529,135.030 319.999 L 137.060 321.185 137.868 319.692 C 138.313 318.872,139.043 317.570,139.489 316.800 C 139.936 316.030,140.976 314.230,141.800 312.800 C 142.624 311.370,143.613 309.660,143.998 309.000 C 146.543 304.634,149.014 300.369,149.789 299.000 C 150.287 298.120,152.632 294.070,155.000 290.000 C 157.368 285.930,159.611 282.060,159.985 281.400 C 160.621 280.278,160.840 280.192,163.333 280.082 C 166.397 279.946,166.407 279.926,164.784 277.173 C 163.679 275.299,158.925 265.620,157.921 263.200 C 157.693 262.650,157.269 261.750,156.978 261.200 L 156.450 260.200 78.225 260.099 L -0.000 259.998 -0.000 269.999 M251.423 260.889 C 251.080 261.378,250.800 261.913,250.800 262.079 C 250.800 262.728,245.316 274.099,243.260 277.712 C 242.031 279.873,242.122 280.000,244.904 280.000 C 247.066 280.000,247.485 280.123,247.972 280.900 C 248.441 281.647,250.688 285.481,256.000 294.600 C 256.385 295.260,257.732 297.600,258.995 299.800 C 260.258 302.000,261.630 304.385,262.045 305.100 C 262.460 305.815,263.180 307.075,263.645 307.900 C 265.657 311.471,270.998 320.592,271.360 321.075 C 271.391 321.116,272.364 320.602,273.523 319.933 L 275.630 318.717 274.754 317.258 C 273.651 315.422,270.209 309.514,269.010 307.400 C 268.511 306.520,264.839 300.160,260.851 293.267 C 256.863 286.374,253.600 280.569,253.600 280.367 C 253.600 280.146,282.675 280.000,326.800 280.000 L 400.000 280.000 400.000 270.000 L 400.000 260.000 326.023 260.000 L 252.045 260.000 251.423 260.889 " stroke="none" fill="#faf6f6" fill-rule="evenodd"></path><path id="path2" d="M0.000 340.000 L 0.000 400.000 200.000 400.000 L 400.000 400.000 400.000 340.000 L 400.000 280.000 327.000 280.000 C 275.951 280.000,254.000 280.127,254.000 280.423 C 254.000 280.907,255.726 284.085,256.846 285.662 C 257.261 286.246,257.600 286.848,257.600 287.000 C 257.600 287.152,257.932 287.754,258.337 288.338 C 258.742 288.922,259.590 290.390,260.221 291.600 C 260.851 292.810,261.669 294.250,262.037 294.800 C 262.405 295.350,263.087 296.475,263.553 297.300 C 264.019 298.125,264.738 299.385,265.151 300.100 C 265.564 300.815,266.576 302.570,267.400 304.000 C 268.224 305.430,269.215 307.140,269.604 307.800 C 269.992 308.460,271.334 310.800,272.585 313.000 C 273.837 315.200,275.028 317.171,275.231 317.380 C 276.188 318.365,273.394 321.200,271.468 321.200 C 271.193 321.200,265.762 312.175,259.400 301.145 C 253.038 290.114,247.587 280.844,247.287 280.545 C 246.705 279.962,243.329 279.803,242.515 280.320 C 242.066 280.606,238.800 285.419,238.800 285.795 C 238.800 286.040,233.524 294.163,233.211 294.400 C 233.066 294.510,232.344 295.500,231.607 296.600 C 219.178 315.141,205.697 323.881,197.989 318.392 C 197.377 317.957,196.714 317.600,196.516 317.600 C 195.562 317.600,188.801 311.495,184.853 307.069 C 180.288 301.951,170.055 287.478,167.628 282.707 C 166.511 280.511,165.719 280.000,163.430 280.000 C 161.137 280.000,161.111 280.020,159.262 283.274 C 158.847 284.004,157.289 286.670,155.800 289.200 C 154.310 291.730,152.684 294.520,152.187 295.400 C 151.689 296.280,150.340 298.620,149.188 300.600 C 148.036 302.580,146.623 305.029,146.047 306.043 C 139.441 317.671,137.331 321.184,136.950 321.192 C 136.120 321.207,132.800 319.137,132.800 318.604 C 132.800 318.115,134.360 315.208,136.666 311.400 C 137.199 310.520,137.738 309.485,137.864 309.100 C 137.990 308.715,138.252 308.400,138.447 308.400 C 138.641 308.400,138.800 308.237,138.800 308.038 C 138.800 307.721,139.706 306.047,142.449 301.300 C 142.862 300.585,143.538 299.415,143.951 298.700 C 144.364 297.985,145.376 296.230,146.200 294.800 C 147.024 293.370,148.036 291.615,148.449 290.900 C 148.862 290.185,149.534 289.015,149.942 288.300 C 150.351 287.585,151.521 285.590,152.542 283.867 C 153.564 282.144,154.400 280.569,154.400 280.367 C 154.400 280.146,123.764 280.000,77.200 280.000 L 0.000 280.000 0.000 340.000 " stroke="none" fill="#046404" fill-rule="evenodd"></path><path id="path3" d="M0.000 59.800 L 0.000 119.600 76.800 119.600 C 127.733 119.600,153.600 119.465,153.600 119.200 C 153.600 118.980,153.340 118.800,153.023 118.800 C 150.612 118.800,141.600 109.665,141.600 107.222 C 141.600 106.990,141.465 106.799,141.300 106.797 C 141.135 106.795,140.799 106.390,140.554 105.897 C 140.309 105.404,139.605 104.100,138.990 103.000 C 136.375 98.319,132.000 89.381,132.000 88.719 C 132.000 88.323,131.820 88.000,131.600 88.000 C 131.380 88.000,131.200 87.728,131.200 87.395 C 131.200 87.062,131.041 86.477,130.847 86.095 C 130.652 85.713,130.316 84.950,130.100 84.400 C 129.884 83.850,129.513 82.950,129.276 82.400 C 128.896 81.520,126.639 74.783,125.581 71.372 C 125.371 70.696,125.200 69.762,125.200 69.295 C 125.200 68.829,125.020 68.336,124.800 68.200 C 124.580 68.064,124.400 67.459,124.400 66.856 C 124.400 66.253,124.238 65.589,124.041 65.380 C 123.844 65.171,123.590 64.280,123.477 63.400 C 123.365 62.520,123.211 61.459,123.136 61.043 C 123.061 60.627,123.222 60.208,123.493 60.112 C 124.023 59.925,133.772 69.469,137.026 73.361 C 138.112 74.659,139.187 75.919,139.415 76.161 C 141.062 77.902,148.000 87.444,148.000 87.968 C 148.000 88.169,148.168 88.393,148.374 88.467 C 148.755 88.602,152.444 94.560,154.401 98.200 C 154.992 99.300,155.835 100.830,156.273 101.600 C 158.477 105.474,159.327 108.477,159.388 112.600 C 159.432 115.540,159.639 116.998,160.169 118.100 L 160.891 119.600 163.586 119.600 L 166.280 119.600 167.540 117.573 C 168.233 116.459,168.800 115.476,168.800 115.390 C 168.800 114.522,178.529 100.585,182.336 96.000 C 193.339 82.747,201.283 78.050,208.221 80.693 C 216.209 83.736,228.777 97.629,239.185 114.923 L 241.880 119.400 244.497 119.517 C 248.074 119.678,248.800 118.632,248.800 113.319 C 248.800 108.016,250.493 103.664,256.313 94.000 C 259.693 88.389,266.686 78.451,268.416 76.800 C 268.762 76.470,269.327 75.787,269.673 75.282 C 270.176 74.547,274.288 69.982,278.000 66.037 C 279.834 64.088,284.479 60.000,284.859 60.000 C 285.476 60.000,284.455 66.350,283.557 68.095 C 283.361 68.477,283.200 69.231,283.200 69.771 C 283.200 70.311,283.020 70.864,282.800 71.000 C 282.580 71.136,282.400 71.689,282.400 72.229 C 282.400 72.769,282.242 73.523,282.048 73.905 C 281.855 74.287,281.381 75.590,280.996 76.800 C 279.936 80.131,277.144 87.350,276.749 87.780 C 276.557 87.989,276.400 88.484,276.400 88.880 C 276.400 89.276,276.220 89.600,276.000 89.600 C 275.780 89.600,275.600 89.842,275.600 90.139 C 275.600 90.435,275.347 91.200,275.037 91.839 C 274.727 92.477,273.829 94.350,273.040 96.000 C 271.653 98.905,270.413 101.188,269.999 101.600 C 269.889 101.710,269.531 102.340,269.203 103.000 C 268.228 104.967,264.509 111.145,263.934 111.756 C 263.640 112.068,262.723 113.133,261.897 114.125 C 260.297 116.043,256.484 118.800,255.432 118.800 C 255.084 118.800,254.800 118.980,254.800 119.200 C 254.800 119.465,279.267 119.600,327.400 119.600 L 400.000 119.600 400.000 59.800 L 400.000 0.000 200.000 0.000 L 0.000 0.000 0.000 59.800 M251.218 142.077 C 250.943 142.805,250.563 143.760,250.371 144.200 C 249.951 145.165,246.543 155.948,245.946 158.200 C 245.713 159.080,245.360 160.113,245.161 160.495 C 244.962 160.877,244.800 161.494,244.800 161.866 C 244.800 162.239,244.632 163.096,244.427 163.772 C 243.106 168.124,241.533 175.923,240.791 181.800 C 240.541 183.780,240.170 186.604,239.968 188.077 C 239.400 192.205,239.538 207.953,240.190 213.400 C 240.952 219.774,241.520 223.677,242.016 225.939 C 242.240 226.963,242.605 228.700,242.828 229.800 C 243.278 232.019,243.861 234.364,244.427 236.228 C 244.632 236.904,244.800 237.838,244.800 238.305 C 244.800 238.771,244.980 239.264,245.200 239.400 C 245.420 239.536,245.600 240.166,245.600 240.800 C 245.600 241.434,245.780 242.064,246.000 242.200 C 246.220 242.336,246.400 242.766,246.400 243.156 C 246.400 243.800,249.557 253.890,250.356 255.800 C 251.475 258.475,251.951 259.327,251.974 258.695 C 251.988 258.307,252.177 257.677,252.393 257.295 C 252.916 256.372,256.021 246.865,257.520 241.600 C 264.427 217.332,265.716 196.283,261.573 175.400 C 260.353 169.250,259.540 165.817,257.644 158.800 C 256.852 155.866,254.011 147.101,252.483 142.877 L 251.716 140.755 251.218 142.077 M156.040 142.422 C 155.754 143.180,155.367 144.160,155.181 144.600 C 153.467 148.654,149.295 163.205,147.611 171.000 C 145.229 182.022,144.615 187.965,144.615 200.000 C 144.615 213.466,145.416 219.985,148.818 234.200 C 150.500 241.229,154.943 255.575,156.164 257.920 L 156.643 258.840 157.111 257.920 C 157.591 256.974,161.491 245.212,162.389 242.000 C 162.666 241.010,163.041 239.750,163.221 239.200 C 164.318 235.860,166.875 223.283,167.532 218.000 C 167.764 216.130,168.144 213.061,168.377 211.179 C 168.923 206.767,168.923 193.233,168.377 188.821 C 168.144 186.939,167.764 183.870,167.532 182.000 C 167.102 178.541,165.500 169.904,164.750 167.000 C 164.523 166.120,164.159 164.680,163.941 163.800 C 163.060 160.234,162.003 156.444,161.599 155.400 C 161.429 154.960,160.541 152.260,159.626 149.400 C 158.711 146.540,157.647 143.490,157.262 142.622 L 156.562 141.044 156.040 142.422 " stroke="none" fill="#040404" fill-rule="evenodd"></path><path id="path4" d="M123.005 60.392 C 122.872 60.607,122.951 61.135,123.182 61.565 C 123.412 61.996,123.600 62.979,123.600 63.750 C 123.600 64.522,123.780 65.264,124.000 65.400 C 124.220 65.536,124.400 66.166,124.400 66.800 C 124.400 67.434,124.580 68.064,124.800 68.200 C 125.291 68.503,125.289 68.236,124.785 66.200 C 123.167 59.669,123.138 59.665,130.272 66.913 C 137.411 74.167,150.800 91.127,150.800 92.916 C 150.800 93.027,151.547 94.348,152.460 95.850 C 155.126 100.238,157.383 104.818,158.153 107.400 C 158.547 108.720,158.929 109.980,159.003 110.200 C 159.077 110.420,159.151 110.091,159.168 109.468 C 159.202 108.273,157.613 103.956,156.273 101.600 C 155.835 100.830,154.992 99.300,154.401 98.200 C 152.444 94.560,148.755 88.602,148.374 88.467 C 148.168 88.393,148.000 88.169,148.000 87.968 C 148.000 87.444,141.062 77.902,139.415 76.161 C 139.187 75.919,138.112 74.659,137.026 73.361 C 134.427 70.253,124.161 60.000,123.648 60.000 C 123.428 60.000,123.138 60.176,123.005 60.392 M281.507 62.700 C 279.908 64.185,278.330 65.687,278.000 66.037 C 274.288 69.982,270.176 74.547,269.673 75.282 C 269.327 75.787,268.762 76.470,268.416 76.800 C 266.686 78.451,259.693 88.389,256.313 94.000 C 250.493 103.664,248.800 108.016,248.800 113.319 C 248.800 118.632,248.074 119.678,244.497 119.517 L 241.880 119.400 239.185 114.923 C 229.360 98.599,217.678 85.299,209.687 81.340 C 208.524 80.764,207.464 80.403,207.330 80.537 C 207.195 80.671,207.426 80.895,207.843 81.033 C 211.100 82.118,214.990 84.935,219.558 89.514 C 222.217 92.180,223.796 94.014,229.139 100.636 C 230.380 102.175,240.000 116.656,240.000 116.986 C 240.000 118.755,242.048 120.118,244.765 120.158 L 247.577 120.200 248.483 118.439 C 249.210 117.024,249.362 116.170,249.255 114.090 C 248.751 104.278,262.531 82.098,279.508 65.398 C 285.082 59.915,285.127 59.948,283.040 68.010 C 277.204 90.546,264.755 113.580,256.034 117.983 C 254.695 118.659,253.600 119.389,253.600 119.606 C 253.600 119.864,278.947 119.966,326.900 119.901 L 400.200 119.802 327.500 119.700 C 279.499 119.633,254.800 119.462,254.800 119.199 C 254.800 118.980,255.084 118.800,255.432 118.800 C 256.484 118.800,260.297 116.043,261.897 114.125 C 262.723 113.133,263.640 112.068,263.934 111.756 C 264.509 111.145,268.228 104.967,269.203 103.000 C 269.531 102.340,269.889 101.710,269.999 101.600 C 270.413 101.188,271.653 98.905,273.040 96.000 C 273.829 94.350,274.727 92.477,275.037 91.839 C 275.347 91.200,275.600 90.435,275.600 90.139 C 275.600 89.842,275.780 89.600,276.000 89.600 C 276.220 89.600,276.400 89.276,276.400 88.880 C 276.400 88.484,276.557 87.989,276.749 87.780 C 277.144 87.350,279.936 80.131,280.996 76.800 C 281.381 75.590,281.855 74.287,282.048 73.905 C 282.242 73.523,282.400 72.769,282.400 72.229 C 282.400 71.689,282.580 71.136,282.800 71.000 C 283.020 70.864,283.200 70.311,283.200 69.771 C 283.200 69.231,283.361 68.477,283.557 68.095 C 284.455 66.350,285.476 60.000,284.859 60.000 C 284.615 60.000,283.107 61.215,281.507 62.700 M125.232 69.372 C 125.214 69.796,125.371 70.696,125.581 71.372 C 126.530 74.431,128.881 81.487,129.222 82.300 C 129.430 82.795,129.801 83.695,130.047 84.300 C 130.292 84.905,130.652 85.713,130.847 86.095 C 131.041 86.477,131.200 87.062,131.200 87.395 C 131.200 87.728,131.380 88.000,131.600 88.000 C 132.131 88.000,132.217 88.307,130.361 83.577 C 129.460 81.280,128.006 77.150,127.130 74.400 C 126.254 71.650,125.476 69.220,125.400 69.000 C 125.325 68.780,125.249 68.947,125.232 69.372 M202.349 79.996 C 194.802 81.358,183.179 92.989,171.849 110.517 C 170.172 113.111,168.800 115.304,168.800 115.390 C 168.800 115.476,168.233 116.459,167.540 117.573 L 166.280 119.600 163.603 119.600 L 160.926 119.600 160.093 117.900 C 159.635 116.965,159.155 115.930,159.026 115.600 C 158.897 115.270,158.880 115.589,158.988 116.309 C 159.419 119.191,160.671 120.206,163.720 120.147 C 165.216 120.118,166.501 120.028,166.575 119.947 C 166.650 119.866,167.510 118.450,168.486 116.800 C 178.675 99.586,191.232 85.033,198.699 81.786 C 199.525 81.426,200.513 80.968,200.895 80.766 C 201.277 80.565,202.792 80.400,204.261 80.400 C 205.731 80.400,206.858 80.335,206.767 80.257 C 206.369 79.915,203.680 79.756,202.349 79.996 M132.000 88.820 C 132.000 89.402,136.553 98.637,138.990 103.000 C 139.605 104.100,140.309 105.404,140.554 105.897 C 140.799 106.390,141.135 106.795,141.300 106.797 C 141.465 106.799,141.600 106.990,141.600 107.222 C 141.600 109.665,150.612 118.800,153.023 118.800 C 153.340 118.800,153.600 118.980,153.600 119.199 C 153.600 119.463,127.501 119.633,76.700 119.700 L -0.200 119.802 77.300 119.901 C 125.316 119.962,154.800 119.857,154.800 119.625 C 154.800 119.419,153.625 118.672,152.190 117.965 C 148.751 116.272,141.200 107.884,141.200 105.758 C 141.200 105.629,140.802 104.965,140.316 104.281 C 139.829 103.598,137.759 99.701,135.716 95.621 C 133.672 91.541,132.000 88.480,132.000 88.820 M159.320 112.800 C 159.320 114.010,159.395 114.505,159.487 113.900 C 159.578 113.295,159.578 112.305,159.487 111.700 C 159.395 111.095,159.320 111.590,159.320 112.800 M156.000 141.005 C 156.000 141.338,155.828 141.923,155.619 142.305 C 154.958 143.510,153.099 149.232,153.303 149.436 C 153.410 149.543,153.798 148.679,154.164 147.516 C 154.531 146.352,154.986 145.040,155.175 144.600 C 155.364 144.160,155.754 143.179,156.041 142.420 L 156.563 141.040 157.457 143.020 C 158.560 145.464,158.700 144.765,157.614 142.233 C 156.846 140.442,156.000 139.798,156.000 141.005 M251.307 140.900 C 250.769 141.588,249.953 144.086,250.189 144.322 C 250.295 144.428,250.492 144.174,250.628 143.757 C 250.764 143.341,251.064 142.495,251.295 141.877 L 251.716 140.755 252.448 142.834 C 253.282 145.202,253.812 145.989,253.367 144.199 C 252.621 141.199,251.934 140.098,251.307 140.900 M249.400 145.600 C 249.250 146.073,249.217 146.550,249.327 146.660 C 249.437 146.770,249.650 146.473,249.800 146.000 C 249.950 145.527,249.983 145.050,249.873 144.940 C 249.763 144.830,249.550 145.127,249.400 145.600 M158.412 145.600 C 158.412 145.930,158.587 146.470,158.800 146.800 C 159.145 147.333,159.188 147.333,159.188 146.800 C 159.188 146.470,159.013 145.930,158.800 145.600 C 158.455 145.067,158.412 145.067,158.412 145.600 M253.600 145.825 C 253.600 146.433,254.927 150.006,255.092 149.841 C 255.299 149.634,254.040 145.600,253.768 145.600 C 253.676 145.600,253.600 145.701,253.600 145.825 M248.600 148.000 C 248.450 148.473,248.417 148.950,248.527 149.060 C 248.637 149.170,248.850 148.873,249.000 148.400 C 249.150 147.927,249.183 147.450,249.073 147.340 C 248.963 147.230,248.750 147.527,248.600 148.000 M159.396 148.450 C 159.550 148.972,160.044 150.570,160.492 152.000 C 160.941 153.430,161.377 154.851,161.463 155.157 C 161.549 155.464,161.707 155.626,161.814 155.519 C 162.028 155.305,160.947 151.423,160.363 150.305 C 160.163 149.923,160.000 149.259,160.000 148.829 C 160.000 148.399,159.801 147.924,159.557 147.774 C 159.255 147.586,159.203 147.801,159.396 148.450 M247.062 152.885 C 245.438 158.049,244.786 160.519,244.992 160.725 C 245.191 160.924,245.211 160.869,246.002 158.000 C 246.274 157.010,246.944 154.794,247.490 153.075 C 248.036 151.356,248.397 149.864,248.293 149.760 C 248.189 149.656,247.635 151.062,247.062 152.885 M152.600 150.800 C 152.450 151.273,152.417 151.750,152.527 151.860 C 152.637 151.970,152.850 151.673,153.000 151.200 C 153.150 150.727,153.183 150.250,153.073 150.140 C 152.963 150.030,152.750 150.327,152.600 150.800 M255.212 150.800 C 255.212 151.130,255.387 151.670,255.600 152.000 C 255.945 152.533,255.988 152.533,255.988 152.000 C 255.988 151.670,255.813 151.130,255.600 150.800 C 255.255 150.267,255.212 150.267,255.212 150.800 M151.873 152.953 C 151.723 153.345,151.611 153.966,151.625 154.333 C 151.642 154.775,151.781 154.674,152.037 154.034 C 152.249 153.503,152.361 152.882,152.285 152.654 C 152.209 152.427,152.024 152.561,151.873 152.953 M256.000 153.042 C 256.000 153.256,257.362 158.050,258.375 161.400 C 258.574 162.060,259.047 163.910,259.425 165.510 C 259.804 167.111,260.199 168.334,260.304 168.229 C 260.489 168.044,259.471 163.243,258.814 161.200 C 258.637 160.650,258.294 159.480,258.051 158.600 C 256.852 154.252,256.000 151.944,256.000 153.042 M151.066 155.643 C 150.982 155.949,150.732 156.830,150.511 157.600 C 148.734 163.781,146.936 171.373,146.626 174.000 C 146.372 176.151,146.831 174.817,147.587 171.200 C 148.401 167.311,149.659 162.289,150.677 158.867 C 151.222 157.035,151.567 155.434,151.444 155.310 C 151.320 155.187,151.150 155.336,151.066 155.643 M162.034 156.600 C 162.022 157.040,162.187 157.670,162.400 158.000 C 162.914 158.795,162.914 157.796,162.400 156.600 L 162.056 155.800 162.034 156.600 M162.834 159.400 C 162.822 159.840,162.987 160.470,163.200 160.800 C 163.714 161.595,163.714 160.596,163.200 159.400 L 162.856 158.600 162.834 159.400 M244.222 162.329 C 244.058 163.059,244.022 163.756,244.142 163.876 C 244.443 164.177,244.920 162.156,244.699 161.517 C 244.601 161.233,244.386 161.598,244.222 162.329 M163.612 162.600 C 163.612 163.040,163.787 163.670,164.000 164.000 C 164.321 164.497,164.388 164.462,164.388 163.800 C 164.388 163.360,164.213 162.730,164.000 162.400 C 163.679 161.903,163.612 161.938,163.612 162.600 M243.422 165.529 C 243.258 166.259,243.222 166.956,243.342 167.076 C 243.643 167.377,244.120 165.356,243.899 164.717 C 243.801 164.433,243.586 164.798,243.422 165.529 M164.434 165.800 C 164.472 167.166,165.138 168.442,165.166 167.200 C 165.178 166.650,165.013 165.930,164.800 165.600 C 164.480 165.105,164.416 165.140,164.434 165.800 M242.688 168.533 C 242.530 168.936,242.411 169.656,242.425 170.133 C 242.449 170.956,242.471 170.950,242.840 170.025 C 243.054 169.489,243.173 168.769,243.103 168.425 C 242.999 167.911,242.925 167.930,242.688 168.533 M165.200 168.545 C 165.200 168.698,165.634 171.023,166.165 173.711 C 166.696 176.400,167.260 179.680,167.419 181.000 C 167.577 182.320,167.781 183.197,167.871 182.948 C 168.043 182.472,167.456 177.840,166.837 174.800 C 166.635 173.810,166.301 172.051,166.094 170.892 C 165.777 169.118,165.200 167.604,165.200 168.545 M260.456 169.600 C 260.456 170.150,260.611 170.960,260.800 171.400 C 261.113 172.129,261.144 172.112,261.144 171.200 C 261.144 170.650,260.989 169.840,260.800 169.400 C 260.487 168.671,260.456 168.688,260.456 169.600 M241.889 172.400 C 241.736 172.950,241.625 173.850,241.642 174.400 C 241.668 175.261,241.726 175.214,242.058 174.060 C 242.270 173.324,242.381 172.424,242.306 172.060 C 242.208 171.594,242.086 171.693,241.889 172.400 M261.268 173.600 C 261.287 175.250,261.917 176.956,261.932 175.400 C 261.938 174.740,261.789 173.840,261.600 173.400 C 261.287 172.673,261.257 172.691,261.268 173.600 M241.017 177.059 C 239.419 187.545,239.199 190.321,239.199 200.000 C 239.199 208.693,239.402 211.854,240.406 218.800 C 241.137 223.857,241.253 224.480,241.433 224.301 C 241.532 224.201,241.423 222.787,241.189 221.160 C 239.591 210.037,239.048 194.963,239.990 187.916 C 240.204 186.312,240.660 182.950,241.002 180.445 C 241.344 177.940,241.540 175.807,241.438 175.704 C 241.335 175.602,241.146 176.212,241.017 177.059 M145.897 177.200 C 145.740 177.750,145.625 178.740,145.642 179.400 L 145.672 180.600 146.058 179.258 C 146.271 178.520,146.386 177.530,146.314 177.058 C 146.192 176.254,146.166 176.263,145.897 177.200 M262.070 177.600 C 262.064 178.150,262.203 179.410,262.380 180.400 L 262.700 182.200 262.710 180.400 C 262.716 179.410,262.576 178.150,262.400 177.600 L 262.080 176.600 262.070 177.600 M145.082 182.750 C 144.927 183.493,144.822 184.843,144.849 185.750 C 144.892 187.228,144.935 187.150,145.253 185.000 C 145.649 182.323,145.522 180.647,145.082 182.750 M263.049 185.200 C 263.165 186.850,263.426 189.518,263.630 191.129 C 263.833 192.740,264.000 196.732,264.000 200.000 C 264.000 203.268,263.833 207.260,263.630 208.871 C 263.061 213.375,262.799 217.896,263.160 217.000 C 263.746 215.546,264.178 208.319,264.178 200.000 C 264.178 191.681,263.746 184.454,263.160 183.000 C 262.980 182.552,262.931 183.519,263.049 185.200 M168.076 185.600 C 168.060 186.810,168.195 188.520,168.377 189.400 L 168.708 191.000 168.719 189.200 C 168.725 188.210,168.590 186.500,168.418 185.400 L 168.107 183.400 168.076 185.600 M144.254 190.256 C 143.917 192.716,143.971 208.175,144.323 210.158 C 144.475 211.015,144.600 206.470,144.600 200.058 C 144.600 193.646,144.579 188.400,144.554 188.400 C 144.529 188.400,144.394 189.235,144.254 190.256 M168.969 200.000 C 168.969 204.510,169.027 206.355,169.098 204.100 C 169.170 201.845,169.170 198.155,169.098 195.900 C 169.027 193.645,168.969 195.490,168.969 200.000 M168.300 210.956 C 168.135 212.032,168.022 213.742,168.049 214.756 L 168.098 216.600 168.457 214.200 C 168.655 212.880,168.768 211.170,168.708 210.400 C 168.608 209.103,168.578 209.144,168.300 210.956 M144.840 214.633 C 144.862 215.715,145.034 217.050,145.221 217.600 C 145.437 218.231,145.478 217.568,145.332 215.800 C 145.060 212.496,144.783 211.840,144.840 214.633 M167.394 219.100 C 167.249 220.365,166.690 223.629,166.152 226.354 C 165.614 229.078,165.261 231.394,165.367 231.501 C 165.474 231.607,165.644 231.268,165.746 230.747 C 165.847 230.226,166.140 228.720,166.398 227.400 C 166.655 226.080,167.024 224.280,167.218 223.400 C 167.692 221.249,168.131 216.800,167.868 216.800 C 167.752 216.800,167.539 217.835,167.394 219.100 M262.262 220.342 C 262.091 221.740,262.038 222.972,262.145 223.079 C 262.432 223.365,262.897 219.885,262.722 218.763 C 262.640 218.233,262.433 218.944,262.262 220.342 M145.668 220.800 C 145.662 221.570,145.811 222.560,146.000 223.000 C 146.465 224.082,146.465 221.852,146.000 220.400 C 145.709 219.491,145.679 219.527,145.668 220.800 M261.419 225.127 C 261.255 226.077,261.217 226.950,261.334 227.068 C 261.626 227.359,262.126 224.573,261.900 223.921 C 261.800 223.635,261.584 224.177,261.419 225.127 M146.457 225.000 C 146.420 226.158,148.437 235.046,149.996 240.600 C 150.243 241.480,150.599 242.799,150.788 243.532 C 150.976 244.264,151.236 244.969,151.365 245.098 C 151.747 245.480,151.634 244.140,151.184 242.958 C 150.677 241.625,148.305 232.310,147.630 229.000 C 146.920 225.524,146.487 224.045,146.457 225.000 M241.668 225.800 C 241.662 226.460,241.811 227.360,242.000 227.800 C 242.470 228.894,242.470 227.067,242.000 225.600 C 241.688 224.625,241.679 224.630,241.668 225.800 M260.617 229.400 C 260.110 231.987,258.057 239.930,256.962 243.541 C 256.405 245.379,256.037 246.971,256.145 247.079 C 256.324 247.258,256.595 246.502,257.608 243.000 C 259.376 236.885,261.236 229.074,261.079 228.419 C 260.998 228.079,260.790 228.520,260.617 229.400 M242.434 230.000 C 242.422 230.550,242.587 231.270,242.800 231.600 C 243.309 232.387,243.309 230.984,242.800 229.800 C 242.485 229.067,242.454 229.084,242.434 230.000 M164.849 232.400 C 164.816 232.730,164.689 233.450,164.567 234.000 C 164.375 234.864,164.407 234.903,164.799 234.288 C 165.048 233.897,165.175 233.177,165.081 232.688 C 164.986 232.200,164.882 232.070,164.849 232.400 M243.234 233.400 C 243.272 234.766,243.938 236.042,243.966 234.800 C 243.978 234.250,243.813 233.530,243.600 233.200 C 243.280 232.705,243.216 232.740,243.234 233.400 M163.800 236.800 C 163.648 237.491,163.614 238.147,163.724 238.257 C 163.834 238.367,164.048 237.891,164.200 237.200 C 164.352 236.509,164.386 235.853,164.276 235.743 C 164.166 235.633,163.952 236.109,163.800 236.800 M244.034 236.600 C 244.072 237.966,244.738 239.242,244.766 238.000 C 244.778 237.450,244.613 236.730,244.400 236.400 C 244.080 235.905,244.016 235.940,244.034 236.600 M163.073 239.353 C 162.923 239.745,162.811 240.366,162.825 240.733 C 162.842 241.175,162.981 241.074,163.237 240.434 C 163.449 239.903,163.561 239.282,163.485 239.054 C 163.409 238.827,163.224 238.961,163.073 239.353 M245.016 240.266 C 245.153 240.890,245.412 241.850,245.591 242.400 C 245.771 242.950,246.226 244.445,246.603 245.722 C 246.980 247.000,247.373 247.961,247.476 247.858 C 247.683 247.651,246.521 243.405,245.957 242.305 C 245.760 241.923,245.600 241.169,245.600 240.629 C 245.600 240.089,245.413 239.532,245.184 239.390 C 244.913 239.223,244.855 239.529,245.016 240.266 M162.273 242.153 C 162.123 242.545,162.011 243.166,162.025 243.533 C 162.042 243.975,162.181 243.874,162.437 243.234 C 162.649 242.703,162.761 242.082,162.685 241.854 C 162.609 241.627,162.424 241.761,162.273 242.153 M160.844 247.044 C 160.380 248.524,160.086 249.819,160.191 249.924 C 160.295 250.029,160.450 249.864,160.535 249.557 C 160.619 249.251,161.005 248.046,161.391 246.881 C 161.778 245.715,162.003 244.670,161.891 244.558 C 161.780 244.447,161.309 245.565,160.844 247.044 M151.612 246.000 C 151.612 246.330,151.787 246.870,152.000 247.200 C 152.345 247.733,152.388 247.733,152.388 247.200 C 152.388 246.870,152.213 246.330,152.000 246.000 C 151.655 245.467,151.612 245.467,151.612 246.000 M255.400 248.400 C 255.250 248.873,255.217 249.350,255.327 249.460 C 255.437 249.570,255.650 249.273,255.800 248.800 C 255.950 248.327,255.983 247.850,255.873 247.740 C 255.763 247.630,255.550 247.927,255.400 248.400 M152.412 248.400 C 152.412 248.730,152.587 249.270,152.800 249.600 C 153.145 250.133,153.188 250.133,153.188 249.600 C 153.188 249.270,153.013 248.730,152.800 248.400 C 152.455 247.867,152.412 247.867,152.412 248.400 M247.612 248.800 C 247.612 249.130,247.787 249.670,248.000 250.000 C 248.345 250.533,248.388 250.533,248.388 250.000 C 248.388 249.670,248.213 249.130,248.000 248.800 C 247.655 248.267,247.612 248.267,247.612 248.800 M254.229 252.029 C 253.858 253.161,253.637 254.170,253.737 254.270 C 253.837 254.370,254.225 253.529,254.600 252.400 C 254.975 251.271,255.196 250.263,255.092 250.159 C 254.988 250.054,254.599 250.896,254.229 252.029 M153.203 250.700 C 153.207 251.216,155.463 257.596,155.738 257.872 C 155.882 258.016,156.000 258.463,156.000 258.867 C 156.000 259.827,156.662 259.805,157.186 258.826 C 157.773 257.730,157.676 257.266,157.037 258.108 C 156.456 258.875,155.753 257.499,154.172 252.500 C 153.570 250.597,153.195 249.901,153.203 250.700 M159.067 252.428 C 158.668 253.553,158.418 254.551,158.513 254.646 C 158.762 254.895,160.092 251.276,159.930 250.791 C 159.855 250.566,159.467 251.303,159.067 252.428 M248.400 251.129 C 248.400 251.772,249.693 255.240,249.868 255.066 C 250.060 254.873,248.806 250.800,248.554 250.800 C 248.469 250.800,248.400 250.948,248.400 251.129 M252.986 255.908 C 252.827 256.628,252.540 257.314,252.348 257.432 C 252.157 257.550,251.994 258.042,251.986 258.524 C 251.968 259.626,250.839 257.891,250.814 256.724 C 250.806 256.352,250.601 255.924,250.357 255.774 C 250.054 255.586,250.005 255.800,250.200 256.450 C 250.657 257.966,251.371 259.307,251.747 259.356 C 252.192 259.413,253.687 255.634,253.452 255.045 C 253.355 254.800,253.145 255.189,252.986 255.908 M157.800 256.000 C 157.650 256.473,157.617 256.950,157.727 257.060 C 157.837 257.170,158.050 256.873,158.200 256.400 C 158.350 255.927,158.383 255.450,158.273 255.340 C 158.163 255.230,157.950 255.527,157.800 256.000 M241.049 281.198 C 240.472 282.070,240.000 282.967,240.000 283.191 C 240.000 283.416,239.820 283.600,239.600 283.600 C 239.380 283.600,239.200 283.806,239.200 284.057 C 239.200 284.518,230.852 297.206,229.129 299.364 C 220.454 310.229,214.277 316.222,209.710 318.210 C 208.879 318.572,207.887 319.032,207.505 319.234 C 207.123 319.435,205.636 319.600,204.200 319.600 C 202.764 319.600,201.277 319.435,200.895 319.234 C 200.513 319.032,199.521 318.572,198.690 318.210 C 191.244 314.970,176.039 297.123,167.585 281.700 C 167.072 280.765,166.409 280.000,166.111 280.000 C 165.724 280.000,165.784 280.231,166.320 280.807 C 166.734 281.250,167.322 282.105,167.628 282.707 C 170.055 287.478,180.288 301.951,184.853 307.069 C 188.801 311.495,195.562 317.600,196.516 317.600 C 196.714 317.600,197.377 317.957,197.989 318.392 C 205.697 323.881,219.178 315.141,231.607 296.600 C 232.344 295.500,233.066 294.510,233.211 294.400 C 233.524 294.163,238.800 286.040,238.800 285.795 C 238.800 285.443,242.051 280.615,242.458 280.364 C 242.732 280.195,242.744 280.012,242.492 279.857 C 242.275 279.723,241.626 280.326,241.049 281.198 M249.000 283.200 C 249.341 283.860,249.711 284.400,249.821 284.400 C 249.931 284.400,249.741 283.860,249.400 283.200 C 249.059 282.540,248.689 282.000,248.579 282.000 C 248.469 282.000,248.659 282.540,249.000 283.200 M152.186 284.500 L 151.552 285.800 152.367 284.800 C 153.152 283.837,153.408 283.200,153.010 283.200 C 152.906 283.200,152.535 283.785,152.186 284.500 M158.186 284.500 L 157.552 285.800 158.367 284.800 C 159.152 283.837,159.408 283.200,159.010 283.200 C 158.906 283.200,158.535 283.785,158.186 284.500 M256.586 285.900 C 256.935 286.615,257.306 287.200,257.410 287.200 C 257.808 287.200,257.552 286.563,256.767 285.600 L 255.952 284.600 256.586 285.900 M150.614 287.035 C 150.241 287.604,150.027 288.161,150.139 288.272 C 150.250 288.383,150.629 287.918,150.981 287.237 C 151.759 285.733,151.544 285.615,150.614 287.035 M156.600 287.200 C 156.259 287.860,156.069 288.400,156.179 288.400 C 156.289 288.400,156.659 287.860,157.000 287.200 C 157.341 286.540,157.531 286.000,157.421 286.000 C 157.311 286.000,156.941 286.540,156.600 287.200 M258.641 289.400 C 259.241 290.500,259.902 291.580,260.110 291.800 C 260.703 292.427,258.941 289.095,258.206 288.200 C 257.845 287.760,258.041 288.300,258.641 289.400 M149.014 289.835 C 148.641 290.404,148.405 290.938,148.489 291.022 C 148.573 291.107,148.958 290.641,149.344 289.988 C 150.206 288.528,149.948 288.409,149.014 289.835 M253.400 290.800 C 253.741 291.460,254.111 292.000,254.221 292.000 C 254.331 292.000,254.141 291.460,253.800 290.800 C 253.459 290.140,253.089 289.600,252.979 289.600 C 252.869 289.600,253.059 290.140,253.400 290.800 M153.800 292.000 C 153.459 292.660,153.269 293.200,153.379 293.200 C 153.489 293.200,153.859 292.660,154.200 292.000 C 154.541 291.340,154.731 290.800,154.621 290.800 C 154.511 290.800,154.141 291.340,153.800 292.000 M147.505 292.500 C 146.644 293.822,145.446 296.265,145.888 295.800 C 146.411 295.250,148.474 291.600,148.263 291.600 C 148.169 291.600,147.828 292.005,147.505 292.500 M254.986 293.500 C 255.335 294.215,255.706 294.800,255.810 294.800 C 256.208 294.800,255.952 294.163,255.167 293.200 L 254.352 292.200 254.986 293.500 M257.041 297.000 C 257.641 298.100,258.302 299.180,258.510 299.400 C 259.103 300.027,257.341 296.695,256.606 295.800 C 256.245 295.360,256.441 295.900,257.041 297.000 M262.586 296.300 C 262.935 297.015,263.306 297.600,263.410 297.600 C 263.808 297.600,263.552 296.963,262.767 296.000 L 261.952 295.000 262.586 296.300 M144.614 297.435 C 144.241 298.004,144.027 298.561,144.139 298.672 C 144.250 298.783,144.629 298.318,144.981 297.637 C 145.759 296.133,145.544 296.015,144.614 297.435 M150.614 297.435 C 150.241 298.004,150.005 298.538,150.089 298.622 C 150.173 298.707,150.558 298.241,150.944 297.588 C 151.806 296.128,151.548 296.009,150.614 297.435 M263.960 298.600 C 264.634 299.905,265.188 300.628,265.185 300.200 C 265.183 299.980,264.814 299.350,264.364 298.800 C 263.821 298.136,263.685 298.069,263.960 298.600 M143.014 300.235 C 142.641 300.804,142.405 301.338,142.489 301.422 C 142.573 301.507,142.958 301.041,143.344 300.388 C 144.206 298.928,143.948 298.809,143.014 300.235 M259.400 301.200 C 259.741 301.860,260.111 302.400,260.221 302.400 C 260.331 302.400,260.141 301.860,259.800 301.200 C 259.459 300.540,259.089 300.000,258.979 300.000 C 258.869 300.000,259.059 300.540,259.400 301.200 M266.241 302.600 C 266.841 303.700,267.502 304.780,267.710 305.000 C 268.303 305.627,266.541 302.295,265.806 301.400 C 265.445 300.960,265.641 301.500,266.241 302.600 M147.800 302.400 C 147.459 303.060,147.269 303.600,147.379 303.600 C 147.489 303.600,147.859 303.060,148.200 302.400 C 148.541 301.740,148.731 301.200,148.621 301.200 C 148.511 301.200,148.141 301.740,147.800 302.400 M141.505 302.900 C 140.644 304.222,139.446 306.665,139.888 306.200 C 140.411 305.650,142.474 302.000,142.263 302.000 C 142.169 302.000,141.828 302.405,141.505 302.900 M260.986 303.900 C 261.335 304.615,261.706 305.200,261.810 305.200 C 262.208 305.200,261.952 304.563,261.167 303.600 L 260.352 302.600 260.986 303.900 M262.360 306.200 C 263.034 307.505,263.588 308.228,263.585 307.800 C 263.583 307.580,263.214 306.950,262.764 306.400 C 262.221 305.736,262.085 305.669,262.360 306.200 M144.614 307.835 C 144.241 308.404,144.005 308.938,144.089 309.022 C 144.173 309.107,144.558 308.641,144.944 307.988 C 145.806 306.528,145.548 306.409,144.614 307.835 M270.086 309.200 C 270.406 309.750,271.343 311.415,272.168 312.900 C 272.994 314.385,273.754 315.600,273.858 315.600 C 274.141 315.600,271.114 310.146,270.253 309.104 L 269.505 308.200 270.086 309.200 M137.014 310.635 C 136.641 311.204,136.405 311.738,136.489 311.822 C 136.573 311.907,136.958 311.441,137.344 310.788 C 138.206 309.328,137.948 309.209,137.014 310.635 M143.105 310.500 C 142.244 311.822,141.046 314.265,141.488 313.800 C 142.011 313.250,144.074 309.600,143.863 309.600 C 143.769 309.600,143.428 310.005,143.105 310.500 M265.400 311.600 C 265.741 312.260,266.111 312.800,266.221 312.800 C 266.331 312.800,266.141 312.260,265.800 311.600 C 265.459 310.940,265.089 310.400,264.979 310.400 C 264.869 310.400,265.059 310.940,265.400 311.600 M135.505 313.300 C 134.644 314.622,133.446 317.065,133.888 316.600 C 134.411 316.050,136.474 312.400,136.263 312.400 C 136.169 312.400,135.828 312.805,135.505 313.300 M267.000 314.400 C 267.341 315.060,267.711 315.600,267.821 315.600 C 267.931 315.600,267.741 315.060,267.400 314.400 C 267.059 313.740,266.689 313.200,266.579 313.200 C 266.469 313.200,266.659 313.740,267.000 314.400 M140.214 315.435 C 139.841 316.004,139.627 316.561,139.739 316.672 C 139.850 316.783,140.229 316.318,140.581 315.637 C 141.359 314.133,141.144 314.015,140.214 315.435 M269.056 317.900 C 270.444 320.318,271.200 321.451,271.200 321.110 C 271.200 320.719,268.397 316.000,268.164 316.000 C 268.055 316.000,268.457 316.855,269.056 317.900 M138.614 318.235 C 138.241 318.804,138.005 319.338,138.089 319.422 C 138.173 319.507,138.558 319.041,138.944 318.388 C 139.806 316.928,139.548 316.809,138.614 318.235 M132.800 318.979 C 132.800 319.089,133.340 319.459,134.000 319.800 C 134.660 320.141,135.200 320.331,135.200 320.221 C 135.200 320.111,134.660 319.741,134.000 319.400 C 133.340 319.059,132.800 318.869,132.800 318.979 " stroke="none" fill="#542b1e" fill-rule="evenodd"></path></g></svg>